<svg width="28" height="28" viewBox="0 0 24 24" fill="black" xmlns="http://www.w3.org/2000/svg">
    <path d="M21 8.25H3C2.59 8.25 2.25 7.79667 2.25 7.25C2.25 6.70333 2.59 6.25 3 6.25H21C21.41 6.25 21.75 6.70333 21.75 7.25C21.75 7.79667 21.41 8.25 21 8.25Z" />
    <path d="M21 13.25H3C2.59 13.25 2.25 12.7967 2.25 12.25C2.25 11.7033 2.59 11.25 3 11.25H21C21.41 11.25 21.75 11.7033 21.75 12.25C21.75 12.7967 21.41 13.25 21 13.25Z" />
    <path d="M21 18.25H3C2.59 18.25 2.25 17.7967 2.25 17.25C2.25 16.7033 2.59 16.25 3 16.25H21C21.41 16.25 21.75 16.7033 21.75 17.25C21.75 17.7967 21.41 18.25 21 18.25Z" />
</svg>
