<svg width="30" height="30" viewBox="0 0 22 22" fill="black" xmlns="http://www.w3.org/2000/svg">
    <path d="M18.3846 6.875H3.61538C3.27897 6.875 3 6.56333 3 6.1875C3 5.81167 3.27897 5.5 3.61538 5.5H18.3846C18.721 5.5 19 5.81167 19 6.1875C19 6.56333 18.721 6.875 18.3846 6.875Z" />
    <path d="M18.2542 11.4584H3.48495C3.14854 11.4584 2.86957 11.1467 2.86957 10.7709C2.86957 10.395 3.14854 10.0834 3.48495 10.0834H10.89H18.2542C18.5906 10.0834 18.8696 10.395 18.8696 10.7709C18.8696 11.1467 18.5906 11.4584 18.2542 11.4584Z" />
    <path d="M18.2542 16.0416H3.48495C3.14854 16.0416 2.86957 15.73 2.86957 15.3541C2.86957 14.9783 3.14854 14.6666 3.48495 14.6666H18.2542C18.5906 14.6666 18.8696 14.9783 18.8696 15.3541C18.8696 15.73 18.5906 16.0416 18.2542 16.0416Z" />
</svg>

