<svg width="18" height="18" viewBox="0 0 18 18" fill="none" xmlns="http://www.w3.org/2000/svg">
<path fill-rule="evenodd" clip-rule="evenodd" d="M7 5.25C7 4.14543 7.89543 3.25 9 3.25C10.1046 3.25 11 4.14543 11 5.25C11 6.35457 10.1046 7.25 9 7.25C7.89543 7.25 7 6.35457 7 5.25ZM9 1.25C6.79086 1.25 5 3.04086 5 5.25C5 7.45914 6.79086 9.25 9 9.25C11.2091 9.25 13 7.45914 13 5.25C13 3.04086 11.2091 1.25 9 1.25ZM6 10.25C4.93913 10.25 3.92172 10.6714 3.17157 11.4216C2.42143 12.1717 2 13.1891 2 14.25V15.75C2 16.3023 2.44772 16.75 3 16.75C3.55228 16.75 4 16.3023 4 15.75V14.25C4 13.7196 4.21071 13.2109 4.58579 12.8358C4.96086 12.4607 5.46957 12.25 6 12.25H12C12.5304 12.25 13.0391 12.4607 13.4142 12.8358C13.7893 13.2109 14 13.7196 14 14.25V15.75C14 16.3023 14.4477 16.75 15 16.75C15.5523 16.75 16 16.3023 16 15.75V14.25C16 13.1891 15.5786 12.1717 14.8284 11.4216C14.0783 10.6714 13.0609 10.25 12 10.25H6Z" fill="#C7C7C7"/>
</svg>
